# xmcd
#
# Track frame offsets:
#	150
#	12887
#	26492
#	40830
#	52737
#	63880
#	79382
#	92852
#	106162
#	119075
#	133950
#	148715
#	163492
#	178460
#	189007
#	204102
#	217155
#	231692
#	243865
#	255265
#	266562
#	277387
#
# Disc length: 3849 seconds
#
# Revision: 0
# Processed by: cddbd v1.5.2PL0 Copyright (c) Steve Scherf et al.
# Submitted via: EasyCDDAExtractor 16.0.8.2
#
DISCID=4b0f0716
DTITLE=Διονυσίου Στράτος - Αξέχαστες επιτυχίες-Διονυσίου Στρ. 1
DYEAR=1982
DGENRE=Λαϊκή
TTITLE0=Βρέχει φωτιά στην στράτα μου [Μ.Πλέσσα-Λ.Παπαδόπουλου]
TTITLE1=Η αφιλότιμη [Γ. Χατζηνάσιου-Τ. Οικονόμου]
TTITLE2=Γιατί καλέ γειτόνισσα [Ά. Πάνου-Αν. Μπακιρτζή]
TTITLE3=Εγώ καλά σού τά 'λεγα [Ά. Πάνου-Αν. Μπακιρτζή]
TTITLE4=Ήταν ψεύτικα [Ά. Πάνου-Αν. Μπακιρτζή]
TTITLE5=Να είχα το κουράγιο [Ά. Πάνου-Αν. Μπακιρτζή]
TTITLE6=Χθες το βράδυ στην ταβέρνα [Π. Καμιλιέρη-Α. Ρεπάνη]
TTITLE7=Το μπουζούκι του Νικόλα [Σ. Διονυσίου-Ν. Καρανικόλα]
TTITLE8=Αχαριστία [Ά. Πάνου-Αν. Μπακιρτζή]
TTITLE9=Μη μού ξυπνάς το παρελθόν [Στ. Κάξου-Χαρ. Βασιλειάδη]
TTITLE10=Καρδιά μου πάψε να πονάς [Μ. Χιώτη]
TTITLE11=Δεν με πόνεσε κανείς [Μπ. Μπακάλη-Δ. Γκούτη]
TTITLE12=Ο παλιατζής [Α. Ρεπάνη-Δ. Γκούτη]
TTITLE13=Του κόσμου το περίγελο [Ά. Πάνου-Αν. Μπακιρτζή]
TTITLE14=Και τι δεν κάνω [Ά. Πάνου-Αν. Μπακιρτζή]
TTITLE15=Αργά, είναι πια αργά [Απ. Καλδάρα]
TTITLE16=Στο σταθμό του Μονάχου [Ά. Πάνου-Αν. Μπακιρτζή]
TTITLE17=Αγάπη μου επικίνδυνη [Δ. Γκούτη-Α. Ρεπάνη]
TTITLE18=Χαρά σ' αυτόν που σ' έχει [Ά. Πάνου-Αν. Μπακιρτζή]
TTITLE19=Τι σού φταίει το παιδί [Μ. Πλέσσα-Λ. Παπαδόπουλου]
TTITLE20=Θα ρίξω ροδοζάχαρη [Ά. Πάνου-Αν. Μπακιρτζή]
TTITLE21=Φέρτε το παιδί του Χάρου [Ά. Πάνου-Αν. Μπακιρτζή]
EXTD=
EXTT0=
EXTT1=
EXTT2=
EXTT3=
EXTT4=
EXTT5=
EXTT6=
EXTT7=
EXTT8=
EXTT9=
EXTT10=
EXTT11=
EXTT12=
EXTT13=
EXTT14=
EXTT15=
EXTT16=
EXTT17=
EXTT18=
EXTT19=
EXTT20=
EXTT21=
PLAYORDER=
